<?xml version="1.0" encoding="utf-8"?>
<!-- Generator: Adobe Illustrator 22.0.1, SVG Export Plug-In . SVG Version: 6.00 Build 0)  -->
<svg version="1.1" id="Layer_1" xmlns="http://www.w3.org/2000/svg" xmlns:xlink="http://www.w3.org/1999/xlink" x="0px" y="0px"
	 viewBox="0 0 1080 760" style="enable-background:new 0 0 1080 760;" xml:space="preserve">
<style type="text/css">
	.st0{stroke:#FFFFFF;stroke-width:3;stroke-miterlimit:10;}
</style>
<g>
	<path d="M534.8,518.8l-43.9,0.2c-5.4-1.2-8.8-6.5-7.6-11.9l51.1-229.4c1.2-5.4,6.7-7.7,11.9-7.6l43.9-0.2c5.4,1.2,8.8,6.5,7.6,11.9
		l-51.1,229.4C545.5,516.6,541,519,534.8,518.8z"/>
</g>
<path class="st0" d="M487.3,489l-13.1,3.3c-0.8,0.2-1.1,1.2-0.5,1.8l9.7,9.4c0.8,0.8,0,2.1-1,1.8l-13-3.7c-0.8-0.2-1.5,0.5-1.3,1.3
	l3.7,13c0.3,1.1-1,1.8-1.8,1l-9.4-9.7c-0.6-0.6-1.6-0.3-1.8,0.5l-3.3,13.1c-0.3,1.1-1.8,1.1-2.1,0l-3.3-13.1
	c-0.2-0.8-1.2-1.1-1.8-0.5l-9.4,9.7c-0.8,0.8-2.1,0-1.8-1l3.7-13c0.2-0.8-0.5-1.5-1.3-1.3l-13,3.7c-1.1,0.3-1.8-1-1-1.8l9.7-9.4
	c0.6-0.6,0.3-1.6-0.5-1.8l-13.1-3.3c-1.1-0.3-1.1-1.8,0-2.1l13.1-3.3c0.8-0.2,1.1-1.2,0.5-1.8l-9.7-9.4c-0.8-0.8,0-2.1,1-1.8l13,3.7
	c0.8,0.2,1.5-0.5,1.3-1.3l-3.7-13c-0.3-1.1,1-1.8,1.8-1l9.4,9.7c0.6,0.6,1.6,0.3,1.8-0.5l3.3-13.1c0.3-1.1,1.8-1.1,2.1,0l3.3,13.1
	c0.2,0.8,1.2,1.1,1.8,0.5l9.4-9.7c0.8-0.8,2.1,0,1.8,1l-3.7,13c-0.2,0.8,0.5,1.5,1.3,1.3l13-3.7c1.1-0.3,1.8,1,1,1.8l-9.7,9.4
	c-0.6,0.6-0.3,1.6,0.5,1.8l13.1,3.3C488.3,487.3,488.3,488.8,487.3,489z"/>
</svg>
